<mxfile host="app.diagrams.net" agent="Mozilla/5.0 (Windows NT 10.0; Win64; x64) AppleWebKit/537.36 (KHTML, like Gecko) Chrome/130.0.0.0 Safari/537.36" version="24.8.6">
  <diagram id="HJfuyr3qiolWChJA20JK" name="Trang-2">
    <mxGraphModel dx="1050" dy="557" grid="1" gridSize="10" guides="1" tooltips="1" connect="1" arrows="1" fold="1" page="1" pageScale="1" pageWidth="827" pageHeight="1169" math="0" shadow="0">
      <root>
        <mxCell id="0" />
        <mxCell id="1" parent="0" />
        <mxCell id="4Q70IPaDWZT8-ZiTnQYA-3" value="" style="edgeStyle=orthogonalEdgeStyle;rounded=0;orthogonalLoop=1;jettySize=auto;html=1;" edge="1" parent="1" source="4Q70IPaDWZT8-ZiTnQYA-1" target="4Q70IPaDWZT8-ZiTnQYA-2">
          <mxGeometry relative="1" as="geometry" />
        </mxCell>
        <mxCell id="4Q70IPaDWZT8-ZiTnQYA-1" value="Star" style="ellipse;whiteSpace=wrap;html=1;" vertex="1" parent="1">
          <mxGeometry x="350" y="300" width="120" height="80" as="geometry" />
        </mxCell>
        <mxCell id="4Q70IPaDWZT8-ZiTnQYA-5" value="" style="edgeStyle=orthogonalEdgeStyle;rounded=0;orthogonalLoop=1;jettySize=auto;html=1;" edge="1" parent="1" source="4Q70IPaDWZT8-ZiTnQYA-2" target="4Q70IPaDWZT8-ZiTnQYA-4">
          <mxGeometry relative="1" as="geometry" />
        </mxCell>
        <mxCell id="4Q70IPaDWZT8-ZiTnQYA-2" value="nhập giá trị a , b" style="whiteSpace=wrap;html=1;" vertex="1" parent="1">
          <mxGeometry x="350" y="470" width="120" height="60" as="geometry" />
        </mxCell>
        <mxCell id="4Q70IPaDWZT8-ZiTnQYA-7" value="" style="edgeStyle=orthogonalEdgeStyle;rounded=0;orthogonalLoop=1;jettySize=auto;html=1;" edge="1" parent="1" source="4Q70IPaDWZT8-ZiTnQYA-4" target="4Q70IPaDWZT8-ZiTnQYA-6">
          <mxGeometry relative="1" as="geometry" />
        </mxCell>
        <mxCell id="4Q70IPaDWZT8-ZiTnQYA-4" value="tính : tổng = a + b" style="whiteSpace=wrap;html=1;" vertex="1" parent="1">
          <mxGeometry x="350" y="610" width="120" height="60" as="geometry" />
        </mxCell>
        <mxCell id="4Q70IPaDWZT8-ZiTnQYA-9" value="" style="edgeStyle=orthogonalEdgeStyle;rounded=0;orthogonalLoop=1;jettySize=auto;html=1;" edge="1" parent="1" source="4Q70IPaDWZT8-ZiTnQYA-6" target="4Q70IPaDWZT8-ZiTnQYA-8">
          <mxGeometry relative="1" as="geometry" />
        </mxCell>
        <mxCell id="4Q70IPaDWZT8-ZiTnQYA-6" value="in tổng = a + b" style="whiteSpace=wrap;html=1;" vertex="1" parent="1">
          <mxGeometry x="350" y="750" width="120" height="60" as="geometry" />
        </mxCell>
        <mxCell id="4Q70IPaDWZT8-ZiTnQYA-8" value="" style="ellipse;whiteSpace=wrap;html=1;" vertex="1" parent="1">
          <mxGeometry x="370" y="880" width="80" height="80" as="geometry" />
        </mxCell>
      </root>
    </mxGraphModel>
  </diagram>
</mxfile>
